<svg aria-hidden="true" style="position: absolute; width: 0; height: 0; overflow: hidden;" version="1.1" xmlns="http://www.w3.org/2000/svg" xmlns:xlink="http://www.w3.org/1999/xlink">
    <defs>
        <symbol id="icon-close-mob" viewBox="0 0 32 32">
            <path stroke-linejoin="round" stroke-linecap="round" stroke-miterlimit="4" stroke-width="3" d="M24 8l-16 16M8 8l16 16"></path>
        </symbol>
        <symbol id="icon-close-tab" viewBox="0 0 32 32">
            <path stroke-linejoin="round" stroke-linecap="round" stroke-miterlimit="4" stroke-width="3.2" d="M24 8l-16 16M8 8l16 16"></path>
        </symbol>
        <symbol id="icon-logo-mob" viewBox="0 0 32 32">
            <path d="M29.082 0.314h-4.010c-0.006-0-0.013-0-0.020-0-1.218 0-2.206 0.98-2.22 2.195v3.929c0.014 1.216 1.002 2.196 2.22 2.196 0.007 0 0.014-0 0.021-0h4.009c0.006 0 0.013 0 0.020 0 1.218 0 2.206-0.98 2.22-2.195v-3.929c-0.014-1.216-1.002-2.196-2.22-2.196-0.007 0-0.014 0-0.021 0h0.001zM6.73 23.040h-4.318c-1.332 0-2.412 0.984-2.412 2.196v3.928c0 1.214 1.080 2.196 2.412 2.196h4.32c1.33 0 2.41-0.982 2.41-2.196v-3.928c0-1.214-1.080-2.196-2.412-2.196zM6.25 11.58h-4.010c-1.238 0-2.24 0.986-2.24 2.2v3.928c0.013 1.216 1.002 2.196 2.22 2.196 0.007 0 0.014-0 0.021-0h4.009c0.006 0 0.013 0 0.020 0 1.218 0 2.206-0.98 2.22-2.195v-3.929c0-1.214-1.004-2.196-2.24-2.196zM17.766 22.98h-4.010c-1.236 0-2.24 0.98-2.24 2.194v3.928c0.014 1.216 1.002 2.196 2.22 2.196 0.007 0 0.014-0 0.021-0h4.009c0.006 0 0.013 0 0.020 0 1.218 0 2.206-0.98 2.22-2.195v-3.929c-0.014-1.216-1.002-2.196-2.22-2.196-0.007 0-0.014 0-0.021 0h0.001zM6.25 0.086h-4.010c-1.238 0-2.24 0.984-2.24 2.196v3.928c0.013 1.216 1.002 2.196 2.22 2.196 0.007 0 0.014-0 0.021-0h4.009c0.006 0 0.013 0 0.020 0 1.218 0 2.206-0.98 2.22-2.195v-3.929c0-1.212-1.004-2.196-2.24-2.196zM18.076 11.698h-4.010c-1.236 0-2.24 0.982-2.24 2.194v3.93c0.014 1.216 1.002 2.196 2.22 2.196 0.007 0 0.014-0 0.021-0h4.009c1.238 0 2.24-0.984 2.24-2.196v-3.93c0-1.212-1.002-2.194-2.24-2.194zM29.334 22.98h-4.010c-1.238 0-2.24 0.98-2.24 2.194v3.928c0.014 1.216 1.002 2.196 2.22 2.196 0.007 0 0.014-0 0.021-0h4.009c0.006 0 0.013 0 0.020 0 1.218 0 2.206-0.98 2.22-2.195v-3.929c0-1.214-1.004-2.196-2.24-2.196zM17.59 0.224h-4.008c-1.238 0-2.24 0.982-2.24 2.196v3.928c0.014 1.216 1.002 2.196 2.22 2.196 0.007 0 0.014-0 0.021-0h4.007c0.006 0 0.013 0 0.020 0 1.218 0 2.206-0.98 2.22-2.195v-3.929c0-1.214-1.002-2.196-2.24-2.196zM29.044 11.926h-4.010c-1.236 0-2.24 0.982-2.24 2.196v3.928c0.014 1.216 1.002 2.196 2.22 2.196 0.007 0 0.014-0 0.021-0h4.009c0.006 0 0.013 0 0.020 0 1.218 0 2.206-0.98 2.22-2.195v-3.929c0-1.214-1.004-2.196-2.24-2.196z"></path>
        </symbol>
        <symbol id="icon-logo-tab" viewBox="0 0 32 32">
            <path d="M29.083 0.315h-4.011c-1.236 0-2.24 0.981-2.24 2.194v3.929c0 1.214 1.004 2.197 2.24 2.197h4.011c1.237 0 2.24-0.983 2.24-2.196v-3.929c0-1.214-1.003-2.196-2.24-2.196zM6.731 23.040h-4.318c-1.333 0-2.412 0.983-2.412 2.196v3.929c0 1.212 1.081 2.196 2.412 2.196h4.318c1.333 0 2.412-0.983 2.412-2.196v-3.929c0-1.212-1.081-2.196-2.412-2.196zM6.249 11.582h-4.009c-1.237 0-2.24 0.983-2.24 2.196v3.929c0 1.212 1.003 2.196 2.24 2.196h4.009c1.237 0 2.24-0.983 2.24-2.196v-3.929c0-1.212-1.003-2.196-2.24-2.196zM17.765 22.978h-4.009c-1.237 0-2.24 0.983-2.24 2.196v3.929c0 1.212 1.003 2.196 2.24 2.196h4.009c1.237 0 2.24-0.983 2.24-2.196v-3.929c0-1.212-1.003-2.196-2.24-2.196zM6.249 0.087h-4.009c-1.237 0-2.24 0.98-2.24 2.194v3.929c0 1.216 1.003 2.199 2.24 2.199h4.009c1.237 0 2.24-0.983 2.24-2.196v-3.929c0.002-1.218-1.001-2.199-2.238-2.199zM18.076 11.698h-4.011c-1.237 0-2.24 0.983-2.24 2.196v3.929c0 1.212 1.004 2.196 2.24 2.196h4.011c1.237 0 2.24-0.983 2.24-2.196v-3.929c0-1.212-1.003-2.196-2.24-2.196zM29.333 22.978h-4.009c-1.237 0-2.24 0.983-2.24 2.196v3.929c0 1.212 1.003 2.196 2.24 2.196h4.009c1.237 0 2.24-0.983 2.24-2.196v-3.929c0-1.212-1.003-2.196-2.24-2.196zM17.591 0.224h-4.011c-1.237 0-2.24 0.983-2.24 2.196v3.929c0 1.212 1.004 2.196 2.24 2.196h4.011c1.237 0 2.24-0.983 2.24-2.196v-3.931c0-1.212-1.003-2.196-2.24-2.196zM29.044 11.925h-4.009c-1.237 0-2.24 0.983-2.24 2.196v3.929c0 1.212 1.003 2.196 2.24 2.196h4.009c1.237 0 2.24-0.983 2.24-2.196v-3.929c0-1.212-1.003-2.196-2.24-2.196z"></path>
        </symbol>
        <symbol id="icon-menu-mob" viewBox="0 0 32 32">
            <path stroke-linejoin="round" stroke-linecap="round" stroke-miterlimit="4" stroke-width="3" d="M5.333 8h21.334M5.333 16h10.667M5.334 24h21.333"></path>
        </symbol>
        <symbol id="icon-menu-tab" viewBox="0 0 32 32">
            <path stroke-linejoin="round" stroke-linecap="round" stroke-miterlimit="4" stroke-width="3.2" d="M5.334 8h21.333M5.334 16h10.666M5.333 24h21.334"></path>
        </symbol>
    </defs>
</svg>